# xmcd
#
# Track frame offsets: 
#        150
#        11679
#        21505
#        35470
#        43444
#        56645
#        71008
#        86297
#        97619
#        109052
#        121881
#        134480
#        149220
#        160785
#        171483
#        182366
#        195266
#        211046
#        224800
#        238063
#
# Disc length: 3343 seconds
#
# Revision: 0
# Processed by: cddbd v1.5.2PL0 Copyright (c) Steve Scherf et al.
# Submitted via: ExactAudioCopy v1.0b4
#
DISCID=240d0d14
DTITLE=201 Blues Hits - CD 9
DYEAR=2013
DGENRE=Blues
TTITLE0=Big Charley Braddix - Dollar Diggin' Woman
TTITLE1=Billy 'Curley' Barrix - Cool Off Baby
TTITLE2=Howlin' Wolf - Smoke Stack Lightning
TTITLE3=Son House - Am I Right Or Wrong
TTITLE4=B.B. King - Sweet Thing
TTITLE5=Elmore James - Dust My Broom
TTITLE6=Arthur "Big Boy" Crudup - Black Pony Blues
TTITLE7=Bo Diddley - Who Do You Love
TTITLE8=Robert Johnson - Cross Roads Blues
TTITLE9=Willy 'Poor Boy' Loften - Dirty Mistreater
TTITLE10=Big Joe Williams - Stack Of Dollars
TTITLE11=Arthur "Big Boy" Crudup - Death Valley Blues
TTITLE12=Bukka White - Aberdeen Mississippi Blues
TTITLE13=Robert Johnson - Love In Vain
TTITLE14=Roosevelt Sykes - Sweet Old Chicago
TTITLE15=B.B. King - Be Careful With A Fool
TTITLE16=Eddie Boyd - 24 Hours
TTITLE17=James Cotton - Cotton Crop Blues
TTITLE18=Memphis Slim - Memphis Slim USA
TTITLE19=Skip James - Hard Time Killin' Floor Blues
EXTD=
EXTT0=
EXTT1=
EXTT2=
EXTT3=
EXTT4=
EXTT5=
EXTT6=
EXTT7=
EXTT8=
EXTT9=
EXTT10=
EXTT11=
EXTT12=
EXTT13=
EXTT14=
EXTT15=
EXTT16=
EXTT17=
EXTT18=
EXTT19=
PLAYORDER=
